#!OML:ASF H:\Terrain\Patient Classification 1\Walking\liu\liu.ASF
:FULLY-SPECIFIED
:DEGREES
192
root 8.78576 16.9098 -5.01603 6.76635 -3.43891 -5.20996
lowerback -4.21564 1.87961 1.9112
upperback 0.311147 2.31227 3.65706
thorax 2.60897 1.15516 2.84451
lowerneck -19.17 -4.88671 -13.5359
upperneck 18.6577 -6.00477 13.9363
head 9.94855 -2.244 6.37257
rclavicle -6.36111e-015 -9.54166e-015
rhumerus -22.3769 17.4702 -82.8496
rradius 38.7519
rwrist -17.3437
rhand -30.7118 -26.3909
rfingers 7.12502
rthumb -4.0048 -56.333
lclavicle -6.36111e-015 -9.54166e-015
lhumerus -48.1244 -6.4535 90.5123
lradius 24.4881
lwrist 1.01104
lhand -10.2539 -25.3611
lfingers 7.12502
lthumb 15.7391 4.0189
rfemur -0.874319 2.87481 31.6411
rtibia 15.4319
rfoot -13.8541 2.61628
rtoes -19.158
lfemur -37.4241 7.97629 -15.2505
ltibia 31.3293
lfoot -8.81418 10.495
ltoes -9.17769
193
root 8.79019 16.9154 -4.88348 7.01677 -3.50708 -5.24687
lowerback -4.39076 1.9255 1.83296
upperback 0.22873 2.37252 3.69756
thorax 2.61534 1.18408 2.93903
lowerneck -19.0234 -4.91628 -13.7744
upperneck 18.5129 -6.03162 14.1555
head 9.89084 -2.25593 6.48702
rclavicle 2.60408e-014 1.55052e-014
rhumerus -22.1166 17.7707 -82.7696
rradius 38.9164
rwrist -17.5772
rhand -31.6093 -28.6536
rfingers 7.12502
rthumb -4.8715 -58.5776
lclavicle 2.60408e-014 1.55052e-014
lhumerus -48.3199 -5.6895 90.0103
lradius 24.3014
lwrist 0.596307
lhand -10.2949 -25.3789
lfingers 7.12502
lthumb 15.6997 4.00419
rfemur -0.206474 2.86821 31.5932
rtibia 14.5541
rfoot -13.5277 2.68726
rtoes -19.3201
lfemur -37.5323 7.40619 -15.0517
ltibia 28.9644
lfoot -8.63606 10.3443
ltoes -9.60998
194
root 8.8009 16.9178 -4.73776 7.11373 -3.51235 -5.37219
lowerback -4.64211 1.95494 1.94489
upperback 0.344641 2.38897 3.72791
thorax 2.87903 1.1927 2.92307
lowerneck -19.2911 -5.01519 -13.7553
upperneck 18.6569 -6.12723 14.0324
head 10.0018 -2.30236 6.4287
rclavicle -1.98785e-016 -2.8625e-014
rhumerus -21.7749 18.0207 -82.6304
rradius 39.3624
rwrist -17.8499
rhand -31.4373 -29.9832
rfingers 7.12502
rthumb -4.70538 -59.9109
lclavicle -1.98785e-016 -2.8625e-014
lhumerus -48.2469 -5.42619 89.7764
lradius 23.9779
lwrist 0.695981
lhand -10.504 -25.8623
lfingers 7.12502
lthumb 15.4982 3.53653
rfemur 0.563043 2.55844 31.5821
rtibia 13.8976
rfoot -13.1497 3.13107
rtoes -18.4752
lfemur -37.3374 6.65045 -14.6711
ltibia 26.6178
lfoot -8.25983 10.1511
ltoes -9.66001
195
root 8.81225 16.917 -4.60312 7.17687 -3.51391 -5.62003
lowerback -4.72115 1.99377 2.15861
upperback 0.466666 2.41708 3.81176
thorax 3.05412 1.20881 2.89962
lowerneck -19.5628 -5.08425 -13.5361
upperneck 18.8057 -6.18144 13.6615
head 10.0921 -2.34131 6.24754
rclavicle -5.41688e-015 -1.90833e-014
rhumerus -21.3294 18.1469 -82.3983
rradius 39.5799
rwrist -17.8382
rhand -31.2148 -28.4845
rfingers 7.12502
rthumb -4.49059 -58.4169
lclavicle -5.41688e-015 -1.90833e-014
lhumerus -48.2085 -5.48838 89.8369
lradius 23.6948
lwrist 1.05322
lhand -10.837 -26.4362
lfingers 7.12502
lthumb 15.1775 2.98719
rfemur 1.44187 2.59406 31.7827
rtibia 13.0188
rfoot -12.926 3.08773
rtoes -19.5741
lfemur -37.1701 5.63158 -13.9583
ltibia 24.4234
lfoot -8.06726 10.4522
ltoes -11.5761
196
root 8.82516 16.9138 -4.47003 7.31774 -3.58325 -5.74663
lowerback -4.87531 2.05969 2.28677
upperback 0.595917 2.48397 3.8186
thorax 3.27768 1.2437 2.85101
lowerneck -20.0484 -5.13935 -13.2811
upperneck 18.9731 -6.23266 13.4158
head 10.2322 -2.35582 6.10893
rclavicle 7.60351e-015 6.0033e-014
rhumerus -20.6561 18.0047 -82.1943
rradius 39.4494
rwrist -17.3171
rhand -31.1425 -27.2392
rfingers 7.12502
rthumb -4.42073 -57.1731
lclavicle 7.60351e-015 6.0033e-014
lhumerus -48.1472 -5.49972 89.7657
lradius 23.6283
lwrist 1.00724
lhand -10.47 -25.9244
lfingers 7.12502
lthumb 15.531 3.47188
rfemur 2.44578 2.92193 31.8616
rtibia 11.7169
rfoot -12.402 2.79622
rtoes -19.6509
lfemur -37.1188 4.53191 -13.307
ltibia 22.496
lfoot -8.57926 11.3841
ltoes -14.9621
197
root 8.84021 16.9203 -4.32307 7.41632 -3.6559 -5.87916
lowerback -4.96318 2.09457 2.43147
upperback 0.578241 2.51817 3.81143
thorax 3.31447 1.26323 2.76867
lowerneck -20.2628 -5.12086 -13.092
upperneck 19.1821 -6.22849 13.2902
head 10.3347 -2.34619 6.03742
rclavicle -1.81391e-014 -5.1684e-015
rhumerus -20.263 18.1674 -82.2274
rradius 39.1937
rwrist -17.2499
rhand -30.8091 -26.5018
rfingers 7.12502
rthumb -4.09884 -56.4421
lclavicle -1.81391e-014 -5.1684e-015
lhumerus -48.3267 -5.16037 89.4357
lradius 23.5048
lwrist 0.669155
lhand -9.64214 -25.0212
lfingers 7.12502
lthumb 16.3282 4.31142
rfemur 3.47764 2.82127 31.863
rtibia 10.5045
rfoot -11.7142 2.97333
rtoes -18.8158
lfemur -36.9683 3.83531 -12.8317
ltibia 20.6698
lfoot -8.67 11.7452
ltoes -16.4014
198
root 8.85482 16.934 -4.1664 7.37769 -3.80249 -5.63813
lowerback -4.99631 2.07286 2.1004
upperback 0.516375 2.51153 3.79425
thorax 3.25544 1.25447 2.93499
lowerneck -20.1199 -5.01979 -13.0673
upperneck 19.2474 -6.10088 13.2238
head 10.3079 -2.29781 6.03062
rclavicle 3.32964e-015 -7.95139e-015
rhumerus -20.2591 18.7279 -82.2711
rradius 39.2358
rwrist -17.6407
rhand -31.5889 -26.0811
rfingers 7.12502
rthumb -4.85178 -56.0055
lclavicle 3.32964e-015 -7.95139e-015
lhumerus -48.6811 -4.79728 89.3112
lradius 23.3601
lwrist 0.985918
lhand -9.62853 -24.8954
lfingers 7.12502
lthumb 16.3413 4.43611
rfemur 4.68258 2.80765 31.4319
rtibia 9.26891
rfoot -11.1107 3.13707
rtoes -19.7235
lfemur -36.5908 3.2312 -12.8407
ltibia 19.0152
lfoot -8.37114 11.7796
ltoes -17.4116
199
root 8.86907 16.9365 -4.01869 7.38779 -3.84067 -5.35904
lowerback -5.14359 2.0667 1.8081
upperback 0.575814 2.5147 3.73563
thorax 3.38951 1.25088 3.04675
lowerneck -20.308 -5.04195 -13.039
upperneck 19.3545 -6.10959 13.1502
head 10.379 -2.30155 6.00071
rclavicle -1.59525e-014 4.77083e-015
rhumerus -20.192 18.9166 -82.1698
rradius 39.5961
rwrist -17.6851
rhand -32.3479 -26.4823
rfingers 7.12502
rthumb -5.58461 -56.3887
lclavicle -1.59525e-014 4.77083e-015
lhumerus -48.664 -4.13209 88.8463
lradius 23.3144
lwrist 0.685009
lhand -9.67865 -25.1491
lfingers 7.12502
lthumb 16.2931 4.18635
rfemur 6.07576 2.70065 30.9875
rtibia 7.52371
rfoot -10.2124 3.29693
rtoes -20.5161
lfemur -36.4074 1.86917 -12.5461
ltibia 17.8096
lfoot -8.5474 13.0638
ltoes -19.3597
200
root 8.88523 16.9306 -3.88554 7.4382 -3.73269 -5.73781
lowerback -5.14124 2.11392 2.26873
upperback 0.674641 2.54204 3.78759
thorax 3.50776 1.27201 2.8483
lowerneck -21.0294 -5.26269 -12.6051
upperneck 19.8684 -6.37307 12.5602
head 10.7016 -2.4315 5.67781
rclavicle -1.47598e-014 1.98785e-014
rhumerus -20.0195 19.0234 -82.0634
rradius 39.9237
rwrist -17.8165
rhand -32.0802 -26.3218
rfingers 7.12502
rthumb -5.32619 -56.2348
lclavicle -1.47598e-014 1.98785e-014
lhumerus -48.3725 -3.55623 88.2783
lradius 23.1188
lwrist -0.132389
lhand -9.38959 -25.3534
lfingers 7.12502
lthumb 16.5714 3.95901
rfemur 7.55689 2.52689 31.3089
rtibia 5.4267
rfoot -8.94424 3.26016
rtoes -21.2038
lfemur -36.4629 0.434509 -11.4056
ltibia 16.9761
lfoot -8.84307 14.5084
ltoes -18.3809
201
root 8.90263 16.9246 -3.74862 7.43241 -3.8009 -6.26322
lowerback -4.99935 2.13422 2.70298
upperback 0.76357 2.53942 3.92881
thorax 3.53334 1.27763 2.74853
lowerneck -20.5667 -5.16575 -12.7297
upperneck 19.2591 -6.29622 12.9625
head 10.404 -2.37582 5.8424
rclavicle -2.03754e-015 -3.02153e-014
rhumerus -19.7623 19.5434 -82.0927
rradius 40.0264
rwrist -18.2307
rhand -32.1388 -27.0899
rfingers 7.12502
rthumb -5.38273 -57.0015
lclavicle -2.03754e-015 -3.02153e-014
lhumerus -48.274 -3.19057 87.9589
lradius 23.0156
lwrist -0.332259
lhand -9.11218 -25.5515
lfingers 7.12502
lthumb 16.8385 3.73844
rfemur 9.11306 2.52832 31.7868
rtibia 3.30967
rfoot -7.59288 3.1107
rtoes -21.9327
lfemur -36.3757 -0.401852 -10.3624
ltibia 16.3396
lfoot -9.0065 15.0625
ltoes -15.5287
